<?xml version="1.0" standalone="no"?>
<!DOCTYPE svg PUBLIC "-//W3C//DTD SVG 20010904//EN"
 "http://www.w3.org/TR/2001/REC-SVG-20010904/DTD/svg10.dtd">
<svg version="1.0" xmlns="http://www.w3.org/2000/svg"
 width="150.000000pt" height="150.000000pt" viewBox="0 0 150.000000 150.000000"
 preserveAspectRatio="xMidYMid meet">
<metadata>
Created by potrace 1.10, written by Peter Selinger 2001-2011
</metadata>
<g transform="translate(0.000000,150.000000) scale(0.100000,-0.100000)"
fill="#000000" stroke="none">
<path d="M500 1074 c-140 -123 -256 -233 -258 -244 -4 -25 26 -40 75 -37 l38
2 5 -217 c3 -119 9 -220 13 -225 5 -4 72 -8 150 -8 l142 0 3 128 3 128 82 -3
82 -3 3 -127 3 -128 139 0 c127 0 140 2 150 19 6 12 10 102 10 225 0 144 3
205 11 208 7 2 34 -1 61 -6 44 -9 52 -8 63 8 8 10 11 26 7 35 -8 20 -498 465
-515 468 -7 1 -127 -99 -267 -223z m514 -32 c130 -118 236 -218 236 -224 0 -7
-13 -8 -37 -3 -103 21 -103 21 -103 -224 0 -117 -4 -211 -9 -216 -6 -6 -59 -9
-120 -7 l-111 3 0 111 c0 145 -2 148 -120 148 -53 0 -91 -5 -98 -12 -8 -8 -12
-52 -12 -130 l0 -118 -109 0 c-60 0 -116 3 -125 6 -14 5 -16 33 -16 208 0 241
-4 252 -77 241 -26 -4 -44 -3 -42 2 8 18 484 432 495 430 7 -1 118 -98 248
-215z"/>
</g>
</svg>
