<?xml version="1.0" standalone="no"?>
<!DOCTYPE svg PUBLIC "-//W3C//DTD SVG 20010904//EN"
 "http://www.w3.org/TR/2001/REC-SVG-20010904/DTD/svg10.dtd">
<svg version="1.0" xmlns="http://www.w3.org/2000/svg"
 width="25px" height="25px" viewBox="0 0 900.000000 900.000000"
 preserveAspectRatio="xMidYMid meet">
<metadata>
Created by potrace 1.10, written by Peter Selinger 2001-2011
</metadata>
<g transform="translate(0.000000,900.000000) scale(0.100000,-0.100000)"
fill="#5c4364" stroke="none">
<path d="M4130 8254 c-362 -40 -688 -117 -1000 -237 -150 -58 -382 -167 -480
-225 -19 -11 -53 -30 -75 -42 -70 -38 -265 -170 -369 -248 -249 -187 -531
-466 -701 -692 -27 -36 -52 -67 -55 -70 -3 -3 -16 -21 -30 -40 -71 -102 -113
-167 -169 -261 -34 -57 -66 -111 -71 -119 -35 -59 -151 -304 -200 -425 -17
-44 -38 -95 -46 -113 -8 -18 -14 -39 -14 -47 0 -8 -6 -29 -14 -47 -8 -18 -22
-60 -31 -93 -10 -33 -24 -80 -31 -105 -81 -277 -134 -669 -134 -995 0 -429 72
-847 208 -1210 56 -150 189 -429 262 -550 16 -27 34 -59 39 -70 5 -11 21 -37
35 -58 14 -21 26 -40 26 -42 0 -5 69 -106 141 -206 307 -425 741 -827 1179
-1090 41 -25 82 -48 90 -52 8 -4 31 -17 50 -28 84 -52 287 -149 435 -208 44
-18 94 -38 110 -45 43 -18 95 -36 130 -46 17 -4 41 -12 55 -17 98 -40 342 -86
615 -118 175 -20 576 -20 749 0 285 34 584 94 769 155 18 5 59 19 92 30 33 10
85 29 115 40 30 12 66 25 80 30 52 17 180 74 304 136 96 48 118 51 186 30 25
-8 74 -22 110 -32 95 -24 215 -56 333 -88 28 -8 81 -22 117 -31 36 -9 88 -23
115 -30 28 -8 76 -21 108 -29 130 -36 165 -45 227 -61 126 -32 256 -67 335
-91 38 -11 90 -17 140 -17 69 1 91 6 148 33 83 39 155 109 193 187 37 75 45
213 19 307 -28 102 -43 158 -61 226 -9 36 -22 85 -29 110 -24 85 -47 172 -91
340 -9 36 -22 85 -29 110 -7 25 -20 74 -30 110 -19 75 -37 140 -60 225 -10 33
-23 83 -30 110 -8 28 -20 75 -29 105 -34 126 -35 143 -6 205 10 22 29 65 43
95 35 77 58 131 67 160 5 14 18 50 30 80 44 116 102 312 134 450 105 467 124
912 60 1380 -9 63 -22 143 -30 177 -8 34 -14 72 -14 84 0 12 -6 45 -14 73 -8
28 -22 80 -32 116 -47 183 -118 402 -150 462 -8 14 -14 31 -14 37 0 15 -130
292 -170 361 -90 156 -150 255 -181 297 -22 29 -39 55 -39 57 0 10 -90 126
-188 243 -253 304 -539 552 -892 775 -156 98 -440 239 -580 288 -14 5 -50 18
-80 30 -30 11 -82 30 -115 40 -33 11 -74 25 -92 30 -114 38 -372 97 -543 125
-283 45 -668 57 -930 29z m765 -569 c157 -24 275 -45 338 -61 217 -54 260 -67
400 -120 137 -52 189 -75 312 -136 412 -204 800 -527 1079 -898 87 -115 121
-165 187 -270 74 -121 152 -275 214 -425 20 -49 43 -105 51 -123 8 -18 14 -39
14 -47 0 -8 6 -29 14 -47 15 -35 34 -101 61 -208 48 -192 64 -266 76 -365 5
-38 13 -99 18 -135 6 -36 11 -186 11 -335 0 -316 -15 -462 -76 -735 -24 -107
-88 -322 -118 -400 -35 -89 -92 -221 -123 -288 -81 -174 -94 -301 -48 -473 13
-52 27 -105 30 -119 4 -14 12 -47 20 -75 8 -27 21 -79 31 -115 9 -36 22 -85
29 -110 7 -25 20 -74 30 -110 16 -63 28 -107 61 -227 8 -32 21 -80 29 -108 7
-27 21 -79 30 -115 9 -36 23 -85 31 -110 8 -25 14 -57 14 -72 0 -23 -4 -28
-26 -28 -15 0 -47 7 -73 15 -25 8 -75 22 -111 31 -36 9 -85 22 -110 29 -25 7
-74 20 -110 29 -36 10 -87 23 -115 31 -27 7 -79 21 -115 31 -36 9 -90 23 -120
31 -30 8 -75 21 -100 28 -25 7 -58 16 -75 19 -16 3 -61 15 -100 26 -263 75
-393 66 -605 -45 -41 -22 -109 -54 -150 -72 -41 -18 -83 -37 -92 -43 -33 -19
-344 -125 -413 -140 -22 -5 -78 -18 -125 -30 -416 -99 -929 -104 -1365 -14
-114 24 -168 40 -335 103 -141 54 -353 154 -475 226 -38 23 -77 44 -85 48 -40
20 -229 147 -277 186 -17 14 -55 44 -84 66 -249 190 -525 480 -705 740 -84
121 -114 167 -114 171 0 2 -12 23 -27 47 -42 65 -78 132 -142 262 -78 160 -87
181 -146 335 -9 25 -23 60 -31 78 -8 18 -14 40 -14 49 0 9 -6 39 -14 67 -16
55 -35 153 -63 316 -26 153 -26 717 0 870 47 275 95 476 154 635 9 22 21 56
28 75 113 307 337 698 521 910 205 237 362 386 569 541 102 76 239 169 249
169 3 0 24 13 48 29 44 29 321 166 393 194 22 9 71 27 108 42 236 91 591 169
842 185 170 12 571 2 690 -15z"/>
</g>
</svg>
