<?xml version="1.0" standalone="no"?>
<!DOCTYPE svg PUBLIC "-//W3C//DTD SVG 20010904//EN"
 "http://www.w3.org/TR/2001/REC-SVG-20010904/DTD/svg10.dtd">
<svg version="1.0" xmlns="http://www.w3.org/2000/svg"
 width="25px" height="25px" viewBox="0 0 900.000000 900.000000"
 preserveAspectRatio="xMidYMid meet">
<metadata>
Created by potrace 1.10, written by Peter Selinger 2001-2011
</metadata>
<g transform="translate(0.000000,900.000000) scale(0.100000,-0.100000)"
fill="#a081a8" stroke="none">
<path d="M2520 8039 c-223 -22 -431 -64 -572 -115 -126 -46 -160 -60 -233 -96
-170 -84 -308 -173 -435 -283 -49 -41 -209 -203 -244 -245 -70 -86 -161 -212
-179 -250 -4 -8 -16 -28 -26 -45 -19 -30 -79 -148 -108 -215 -9 -19 -21 -44
-26 -55 -6 -11 -14 -33 -18 -50 -7 -28 -12 -43 -44 -135 -14 -38 -35 -137 -60
-270 -21 -117 -21 -502 0 -620 30 -168 54 -267 87 -365 5 -16 13 -43 18 -60 5
-16 18 -55 30 -85 12 -30 25 -66 30 -80 32 -99 196 -436 270 -555 10 -16 28
-47 39 -67 11 -21 33 -57 48 -80 39 -60 51 -81 59 -98 4 -8 19 -31 33 -50 14
-19 31 -43 36 -52 38 -63 359 -500 419 -569 17 -19 56 -66 86 -104 30 -37 60
-73 67 -80 6 -6 35 -41 64 -76 29 -35 60 -71 68 -80 9 -9 47 -51 86 -95 38
-43 108 -119 155 -169 47 -49 90 -95 95 -101 23 -27 275 -280 407 -410 152
-149 251 -243 412 -389 54 -50 105 -96 112 -103 7 -7 51 -45 97 -85 46 -40
120 -103 164 -142 44 -38 101 -88 128 -110 26 -22 53 -45 59 -50 6 -6 36 -30
66 -55 30 -25 62 -51 70 -59 8 -8 57 -49 109 -90 321 -259 577 -451 601 -451
12 0 26 4 33 10 17 14 197 154 295 230 113 88 299 236 377 301 32 27 118 99
145 123 14 11 61 52 105 89 122 104 178 153 205 179 13 12 60 54 103 91 44 37
85 73 92 80 6 7 66 62 131 122 297 275 574 548 793 785 74 80 157 170 186 200
64 69 211 240 295 345 36 44 73 89 83 100 20 22 183 234 207 269 8 11 40 55
70 96 53 71 123 171 145 208 6 9 28 44 51 77 22 34 43 67 48 75 8 18 22 40 59
97 15 24 27 45 27 48 0 3 12 24 27 48 70 110 225 438 288 607 7 19 20 53 28
75 14 38 28 83 61 200 44 159 76 386 76 549 0 207 -45 483 -106 649 -60 162
-80 208 -131 305 -177 337 -449 623 -778 818 -220 130 -405 200 -695 261 -70
14 -135 17 -360 17 -284 0 -306 -2 -495 -50 -107 -27 -152 -42 -277 -90 -57
-22 -235 -110 -273 -134 -16 -11 -37 -23 -45 -27 -8 -4 -48 -29 -88 -56 -144
-98 -353 -299 -468 -452 -61 -80 -184 -278 -184 -295 0 -11 -29 -40 -40 -40
-4 0 -24 33 -43 73 -20 39 -57 103 -82 141 -25 38 -45 73 -45 77 0 5 -4 9 -8
9 -4 0 -16 14 -26 31 -37 62 -206 247 -305 332 -100 87 -283 216 -364 257 -23
12 -49 25 -57 30 -15 9 -94 45 -165 75 -168 71 -447 135 -655 150 -47 3 -94 7
-105 9 -11 2 -58 -1 -105 -5z"/>
</g>
</svg>
