<?xml version="1.0" standalone="no"?>
<!DOCTYPE svg PUBLIC "-//W3C//DTD SVG 20010904//EN"
 "http://www.w3.org/TR/2001/REC-SVG-20010904/DTD/svg10.dtd">
<svg version="1.0" xmlns="http://www.w3.org/2000/svg"
 width="25px" height="25px" viewBox="0 0 900.000000 900.000000"
 preserveAspectRatio="xMidYMid meet">
<metadata>
Created by potrace 1.10, written by Peter Selinger 2001-2011
</metadata>
<g transform="translate(0.000000,900.000000) scale(0.100000,-0.100000)"
fill="#5c4364" stroke="none">
<path d="M2390 8559 c-221 -26 -367 -51 -400 -69 -10 -5 -31 -10 -45 -10 -15
0 -41 -6 -58 -14 -18 -8 -43 -16 -57 -19 -14 -3 -50 -15 -80 -27 -30 -12 -69
-25 -85 -29 -17 -4 -39 -13 -50 -18 -27 -14 -206 -99 -225 -107 -8 -3 -28 -15
-45 -26 -16 -11 -39 -24 -50 -30 -11 -6 -33 -19 -50 -30 -16 -11 -37 -23 -45
-27 -14 -6 -82 -55 -189 -135 -92 -70 -221 -187 -326 -299 -51 -54 -161 -188
-180 -217 -5 -9 -28 -42 -50 -72 -46 -63 -62 -89 -72 -110 -4 -8 -18 -33 -32
-55 -40 -63 -50 -79 -57 -95 -3 -8 -25 -55 -49 -105 -23 -49 -50 -109 -59
-132 -9 -24 -23 -62 -32 -85 -9 -24 -22 -58 -30 -76 -8 -18 -14 -43 -14 -55
-1 -12 -7 -33 -15 -47 -8 -14 -14 -39 -15 -56 0 -17 -6 -47 -14 -65 -7 -19
-21 -86 -30 -149 -10 -63 -22 -137 -27 -165 -12 -59 -5 -549 9 -670 14 -116
38 -246 51 -278 6 -16 11 -40 11 -55 0 -15 6 -47 14 -72 8 -25 22 -72 31 -105
9 -33 22 -71 27 -85 6 -14 14 -38 18 -55 15 -58 81 -229 106 -277 8 -14 14
-32 14 -39 0 -12 79 -183 101 -219 5 -8 12 -22 15 -30 3 -8 9 -22 14 -30 5 -8
27 -49 48 -90 21 -41 49 -93 63 -115 14 -22 29 -47 32 -55 4 -8 16 -28 27 -45
11 -16 24 -39 30 -50 51 -96 392 -584 430 -615 3 -3 17 -21 30 -40 13 -19 31
-42 39 -51 9 -9 41 -47 71 -84 30 -38 74 -88 96 -112 23 -24 88 -97 145 -163
118 -135 575 -593 749 -750 63 -57 133 -119 154 -139 22 -20 52 -45 66 -56 26
-19 89 -73 210 -180 32 -27 72 -61 90 -75 19 -14 41 -32 49 -41 16 -15 117
-96 169 -134 56 -41 127 -100 135 -112 4 -7 13 -13 19 -13 11 0 91 -60 96 -73
2 -4 17 -14 32 -22 16 -8 49 -32 74 -52 83 -70 153 -123 160 -123 4 0 42 -26
84 -58 42 -33 109 -81 147 -107 39 -27 103 -71 143 -99 41 -28 84 -58 97 -66
13 -8 58 -39 100 -68 41 -28 80 -52 84 -52 5 0 11 -3 13 -7 3 -8 71 -57 106
-78 9 -6 66 -43 125 -83 60 -39 111 -72 113 -72 3 0 12 -7 20 -15 19 -19 29
-19 48 0 8 8 17 15 20 15 2 0 53 33 113 72 59 40 116 77 125 83 35 21 103 70
106 78 2 4 8 7 13 7 4 0 43 24 84 53 42 28 87 59 100 67 13 8 56 38 97 66 40
28 105 72 143 99 39 26 105 74 147 107 42 32 80 58 84 58 7 0 77 53 160 123
25 20 58 44 74 52 15 8 30 18 32 22 5 13 85 73 96 73 6 0 15 6 19 13 8 12 79
71 135 112 52 38 153 119 169 134 8 9 30 27 49 41 18 14 58 48 90 75 121 107
184 161 210 180 14 11 44 36 66 56 21 20 91 82 154 139 193 174 594 576 739
739 75 85 150 169 166 186 17 17 55 62 85 100 30 37 62 75 71 84 8 9 26 32 39
51 13 19 27 37 30 40 38 31 379 519 430 615 6 11 19 34 30 50 11 17 23 37 27
45 3 8 18 33 32 55 14 22 42 74 63 115 38 74 48 92 68 128 6 9 13 24 16 32 3
8 26 56 50 106 24 49 44 96 44 103 0 7 6 25 14 39 25 48 91 219 106 277 4 17
12 41 18 55 5 14 18 52 27 85 9 33 23 80 31 105 8 25 14 57 14 72 0 15 5 39
11 55 15 37 37 166 48 279 9 95 16 118 32 109 5 -4 9 102 9 269 0 235 -2 276
-15 276 -8 0 -16 13 -19 33 -25 176 -41 267 -52 296 -8 18 -14 48 -14 65 -1
17 -7 42 -15 56 -8 14 -14 35 -15 47 0 12 -6 37 -14 55 -13 31 -30 74 -63 163
-9 22 -35 81 -58 130 -24 50 -46 97 -49 105 -4 8 -12 24 -19 35 -7 11 -24 38
-37 60 -14 23 -31 50 -38 60 -6 11 -15 27 -19 35 -3 8 -25 40 -47 70 -23 31
-45 63 -51 72 -19 29 -129 163 -180 217 -105 112 -234 229 -326 299 -107 80
-175 129 -189 135 -8 4 -28 16 -45 27 -16 11 -39 24 -50 30 -11 6 -33 19 -50
30 -16 11 -37 23 -45 26 -19 8 -198 93 -225 107 -11 5 -33 14 -50 18 -16 4
-55 17 -85 29 -30 12 -66 24 -80 27 -14 3 -39 11 -57 19 -17 8 -43 14 -58 14
-14 0 -35 5 -45 10 -22 12 -154 38 -250 50 -190 24 -248 29 -390 29 -190 1
-401 -24 -585 -70 -22 -6 -58 -14 -80 -19 -42 -8 -87 -23 -143 -46 -18 -8 -41
-14 -50 -14 -10 0 -27 -7 -38 -15 -10 -8 -27 -15 -36 -15 -9 0 -29 -6 -45 -14
-15 -8 -59 -28 -98 -46 -38 -17 -77 -36 -85 -41 -8 -5 -19 -11 -25 -13 -5 -2
-17 -7 -25 -10 -8 -3 -28 -15 -45 -26 -16 -11 -37 -23 -45 -27 -31 -13 -268
-176 -331 -227 -37 -29 -100 -85 -140 -124 -41 -40 -81 -72 -89 -72 -8 0 -48
32 -89 72 -40 39 -103 95 -140 124 -63 51 -300 214 -331 227 -8 4 -28 16 -45
27 -16 11 -37 22 -45 26 -8 3 -22 10 -30 15 -8 5 -22 12 -30 15 -18 8 -135 61
-173 80 -16 8 -36 14 -45 14 -9 0 -26 7 -36 15 -11 8 -28 15 -38 15 -9 0 -32
6 -50 14 -56 23 -101 38 -143 46 -22 5 -58 13 -80 19 -250 63 -594 88 -825 60z
m365 -550 c83 -5 166 -15 185 -21 19 -6 62 -15 95 -19 33 -4 92 -17 130 -29
39 -12 81 -24 95 -26 24 -5 66 -22 123 -50 16 -8 33 -14 38 -14 10 0 126 -56
204 -98 198 -107 441 -314 595 -505 30 -38 62 -76 71 -85 9 -10 24 -30 35 -47
10 -16 27 -39 36 -50 10 -11 35 -44 56 -74 45 -66 65 -80 90 -65 9 6 34 35 54
65 21 30 46 63 55 74 10 11 28 35 41 54 13 18 29 39 35 47 7 7 37 43 67 81
155 192 397 398 595 505 78 42 194 98 204 98 5 0 22 6 38 14 57 28 99 45 123
50 14 2 57 14 95 26 39 12 97 25 130 29 33 4 76 13 95 19 19 6 105 16 190 21
208 15 475 -9 621 -55 26 -8 55 -14 66 -14 23 0 135 -38 148 -51 5 -5 17 -9
27 -9 34 0 258 -110 374 -183 342 -218 630 -551 791 -914 9 -21 22 -50 30 -65
7 -14 13 -34 13 -45 0 -10 7 -27 15 -37 8 -11 15 -27 15 -37 0 -9 7 -30 15
-45 8 -16 15 -40 15 -53 0 -13 6 -44 14 -70 32 -100 60 -333 60 -496 0 -114
-14 -304 -25 -342 -6 -17 -14 -62 -19 -100 -8 -65 -15 -96 -46 -210 -33 -125
-47 -170 -60 -195 -8 -14 -14 -37 -14 -50 0 -12 -7 -32 -15 -42 -8 -11 -15
-28 -15 -37 0 -10 -6 -30 -14 -46 -8 -15 -22 -45 -30 -65 -9 -21 -23 -52 -31
-70 -32 -74 -127 -266 -154 -313 -16 -27 -41 -70 -54 -95 -74 -136 -364 -565
-420 -622 -7 -7 -36 -44 -65 -81 -87 -114 -177 -222 -261 -313 -31 -34 -85
-95 -121 -137 -66 -76 -440 -452 -585 -587 -44 -41 -139 -126 -210 -188 -72
-63 -159 -139 -194 -170 -35 -32 -86 -73 -112 -94 -27 -20 -55 -42 -62 -50
-37 -36 -159 -133 -332 -265 -77 -59 -146 -113 -153 -120 -7 -7 -16 -13 -20
-13 -4 0 -20 -13 -37 -28 -16 -15 -60 -49 -97 -75 -37 -26 -114 -80 -170 -122
-163 -119 -180 -131 -346 -242 -86 -58 -183 -123 -214 -144 -31 -22 -62 -39
-68 -39 -7 0 -26 10 -43 23 -17 12 -39 27 -49 32 -17 10 -198 134 -323 220
-38 27 -91 63 -116 79 -69 47 -363 263 -424 314 -5 4 -73 56 -150 115 -174
132 -295 230 -332 265 -7 8 -35 30 -62 50 -26 21 -77 62 -112 94 -35 31 -122
107 -194 170 -71 62 -166 147 -210 188 -145 135 -519 511 -585 587 -36 42 -90
103 -121 137 -84 91 -174 199 -261 313 -29 37 -58 74 -65 81 -56 57 -346 486
-420 622 -13 25 -38 68 -54 95 -27 47 -125 245 -153 310 -26 62 -48 111 -62
138 -8 16 -14 36 -14 46 0 9 -7 26 -15 37 -8 10 -15 30 -15 42 0 13 -6 36 -14
50 -13 25 -27 70 -60 195 -31 114 -38 145 -46 210 -5 38 -13 83 -19 100 -11
38 -25 228 -25 342 0 163 28 396 60 496 8 26 14 57 14 70 0 13 7 37 15 53 8
15 15 36 15 45 0 10 7 26 15 37 8 10 15 27 15 37 0 11 6 31 13 45 8 15 21 43
29 62 96 221 249 442 432 626 170 170 338 292 541 391 137 68 173 83 193 83
10 0 22 4 28 9 12 13 124 51 147 51 11 0 40 6 66 14 75 24 158 38 296 51 179
17 163 16 330 4z"/>
</g>
</svg>
