<?xml version="1.0" standalone="no"?>
<!DOCTYPE svg PUBLIC "-//W3C//DTD SVG 20010904//EN"
 "http://www.w3.org/TR/2001/REC-SVG-20010904/DTD/svg10.dtd">
<svg version="1.0" xmlns="http://www.w3.org/2000/svg"
 width="150.000000pt" height="150.000000pt" viewBox="0 0 150.000000 150.000000"
 preserveAspectRatio="xMidYMid meet">
<metadata>
Created by potrace 1.10, written by Peter Selinger 2001-2011
</metadata>
<g transform="translate(0.000000,150.000000) scale(0.100000,-0.100000)"
fill="#000000" stroke="none">
<path d="M381 1255 c-57 -24 -111 -51 -120 -60 -24 -23 -30 -809 -7 -854 13
-24 37 -37 135 -76 115 -46 121 -47 145 -32 15 10 27 30 31 49 3 18 5 246 3
506 l-3 474 -24 19 c-13 10 -31 19 -40 18 -9 0 -63 -20 -120 -44z m147 -493
c2 -436 0 -493 -13 -498 -9 -4 -64 13 -123 37 l-107 44 -3 409 c-1 270 1 413
8 420 17 17 194 86 215 83 20 -2 20 -10 23 -495z"/>
<path d="M460 760 c0 -62 2 -71 17 -68 24 4 23 131 -1 136 -13 3 -16 -8 -16
-68z"/>
<path d="M605 1221 c-15 -26 11 -31 149 -31 112 0 146 -3 155 -14 8 -10 13
-67 14 -168 2 -128 4 -153 17 -153 13 0 15 25 18 157 2 153 2 157 -22 185
l-24 28 -150 3 c-99 2 -152 0 -157 -7z"/>
<path d="M1104 949 c-4 -7 25 -44 73 -90 l80 -79 -309 0 c-289 0 -309 -1 -306
-17 3 -17 26 -18 310 -18 l308 0 -82 -82 c-65 -66 -80 -85 -70 -95 10 -10 33
9 115 90 l102 102 -100 100 c-55 55 -103 100 -107 100 -4 0 -10 -5 -14 -11z"/>
<path d="M925 660 c-3 -5 -5 -75 -4 -156 0 -98 -3 -150 -11 -158 -7 -7 -67
-13 -157 -16 -105 -4 -148 -9 -151 -17 -3 -10 32 -13 153 -13 156 0 156 0 180
26 24 26 25 31 25 185 0 132 -2 159 -14 159 -8 0 -18 -4 -21 -10z"/>
</g>
</svg>
