<?xml version="1.0" standalone="no"?>
<!DOCTYPE svg PUBLIC "-//W3C//DTD SVG 20010904//EN"
 "http://www.w3.org/TR/2001/REC-SVG-20010904/DTD/svg10.dtd">
<svg version="1.0" xmlns="http://www.w3.org/2000/svg"
 width="40px" height="40px" viewBox="0 0 150.000000 150.000000"
 preserveAspectRatio="xMidYMid meet">
<metadata>
Created by potrace 1.10, written by Peter Selinger 2001-2011
</metadata>
<g transform="translate(0.000000,150.000000) scale(0.100000,-0.100000)"
fill="#000000" stroke="none">
<path d="M830 1297 c-232 -66 -307 -361 -136 -533 123 -122 311 -125 438 -7
203 191 81 533 -197 549 -33 2 -80 -2 -105 -9z m183 -57 c184 -69 228 -313 81
-452 -122 -114 -323 -80 -412 70 -24 41 -27 57 -27 132 0 75 3 90 28 133 68
115 205 164 330 117z"/>
<path d="M441 546 c-175 -175 -202 -211 -166 -223 6 -2 95 82 198 185 138 139
186 193 181 205 -3 10 -11 17 -18 17 -6 0 -94 -83 -195 -184z"/>
</g>
</svg>
