<?xml version="1.0" standalone="no"?>
<!DOCTYPE svg PUBLIC "-//W3C//DTD SVG 20010904//EN"
 "http://www.w3.org/TR/2001/REC-SVG-20010904/DTD/svg10.dtd">
<svg version="1.0" xmlns="http://www.w3.org/2000/svg"
 width="150.000000pt" height="150.000000pt" viewBox="0 0 150.000000 150.000000"
 preserveAspectRatio="xMidYMid meet">
<metadata>
Created by potrace 1.10, written by Peter Selinger 2001-2011
</metadata>
<g transform="translate(0.000000,150.000000) scale(0.100000,-0.100000)"
fill="#000000" stroke="none">
<path d="M157 1304 c-4 -4 -7 -124 -7 -266 l0 -258 90 0 c50 0 90 -3 90 -7 0
-5 23 -33 50 -63 l49 -55 50 49 50 50 3 -170 3 -169 215 -5 215 -5 60 -63 60
-64 63 67 63 66 72 -2 72 -2 7 129 c5 71 7 188 5 259 l-2 130 -187 3 -188 2 0
184 0 183 -112 6 c-62 4 -179 7 -260 7 -125 0 -148 -2 -148 -15 0 -13 23 -15
148 -15 81 0 191 -3 244 -7 l97 -6 3 -168 3 -169 -217 0 -218 0 0 -65 c0 -64
-1 -67 -46 -115 -26 -28 -49 -50 -53 -50 -3 1 -26 26 -51 55 l-44 55 -78 0
-78 0 0 235 0 235 51 0 c36 0 49 4 47 13 -5 13 -109 23 -121 11z m1183 -517
c0 -63 -3 -167 -6 -233 l-7 -119 -67 3 -67 4 -53 -62 -53 -62 -54 61 -55 61
-209 0 -209 0 0 230 0 230 390 0 390 0 0 -113z"/>
<path d="M666 811 c-5 -7 -6 -14 -4 -16 2 -2 112 -7 246 -11 221 -6 242 -6
242 10 0 14 -13 16 -88 16 -49 0 -156 3 -239 6 -113 5 -152 4 -157 -5z"/>
<path d="M817 682 c-120 -2 -157 -6 -154 -15 5 -16 305 -23 321 -7 21 21 -12
25 -167 22z"/>
<path d="M1045 680 c-10 -16 -6 -18 45 -21 35 -3 45 0 45 11 0 18 -80 27 -90
10z"/>
<path d="M895 570 c-146 -3 -229 -9 -227 -15 1 -6 90 -10 240 -10 198 0 237 2
237 14 0 18 19 17 -250 11z"/>
<path d="M337 1303 c-16 -16 -4 -23 38 -23 33 0 45 4 45 15 0 11 -11 15 -38
15 -21 0 -42 -3 -45 -7z"/>
<path d="M345 1190 c-3 -6 0 -12 7 -15 25 -10 468 0 471 10 3 14 -469 19 -478
5z"/>
<path d="M353 1068 c5 -18 319 -18 325 0 3 9 -34 12 -163 12 -129 0 -166 -3
-162 -12z"/>
<path d="M392 963 c-36 -3 -52 -8 -49 -16 2 -8 29 -12 78 -12 59 0 74 3 74 15
0 16 -20 19 -103 13z"/>
</g>
</svg>
