<?xml version="1.0" standalone="no"?>
<!DOCTYPE svg PUBLIC "-//W3C//DTD SVG 20010904//EN"
 "http://www.w3.org/TR/2001/REC-SVG-20010904/DTD/svg10.dtd">
<svg version="1.0" xmlns="http://www.w3.org/2000/svg"
 width="35.000000px" height="35.000000px" viewBox="0 0 900.000000 900.000000"
 preserveAspectRatio="xMidYMid meet">
<metadata>
Created by potrace 1.10, written by Peter Selinger 2001-2011
</metadata>
<g transform="translate(0.000000,900.000000) scale(0.100000,-0.100000)"
fill="#ffffff" stroke="none">
<path d="M1300 7894 c-41 -8 -96 -21 -121 -29 -26 -8 -54 -15 -63 -15 -14 0
-31 -6 -121 -45 -58 -25 -120 -56 -150 -76 -16 -10 -37 -22 -45 -26 -38 -17
-173 -128 -249 -204 -76 -76 -187 -211 -204 -249 -4 -8 -16 -28 -26 -45 -47
-73 -103 -204 -134 -315 -49 -177 -47 -66 -47 -2402 0 -1921 2 -2187 15 -2260
26 -137 50 -220 91 -313 7 -16 15 -37 19 -45 13 -33 63 -119 110 -190 77 -116
335 -367 415 -403 8 -4 29 -16 45 -26 75 -48 211 -108 305 -134 195 -56 16
-52 2420 -52 2091 0 2209 1 2290 18 169 36 281 78 431 160 184 100 433 350
526 526 87 162 121 254 154 414 17 82 19 140 19 682 l0 591 -33 32 c-41 39
-94 56 -150 47 -38 -7 -62 -27 -229 -192 -109 -108 -189 -196 -193 -211 -4
-15 -11 -211 -14 -437 -8 -437 -4 -404 -59 -540 -29 -73 -102 -175 -173 -246
-91 -89 -173 -142 -289 -184 -123 -44 -132 -44 -2274 -45 -1440 0 -2056 3
-2120 11 -195 24 -340 100 -481 251 -87 93 -139 186 -182 323 -17 58 -18 150
-18 2230 0 2045 1 2172 18 2209 9 21 17 45 17 52 0 8 14 45 32 82 95 198 284
362 482 418 112 33 274 35 2341 32 1929 -3 2073 -4 2120 -21 112 -38 133 -27
322 165 140 141 161 179 142 253 -20 78 -95 124 -289 178 -176 49 -69 47
-2400 46 -1823 -1 -2187 -4 -2250 -15z"/>
<path d="M7485 7855 c-97 -24 -135 -54 -392 -309 -139 -138 -253 -253 -253
-257 0 -13 1381 -1389 1394 -1389 17 0 516 504 516 522 0 8 5 19 11 25 30 30
49 118 49 225 0 108 -2 115 -49 218 -9 20 -195 215 -443 465 -456 459 -477
477 -600 504 -61 14 -170 12 -233 -4z"/>
<path d="M4882 5337 l-1632 -1632 0 -683 c0 -452 4 -690 10 -703 10 -18 29
-19 698 -19 l687 0 1632 1632 c898 898 1633 1638 1633 1645 0 11 -1370 1385
-1387 1390 -4 2 -743 -732 -1641 -1630z m1705 947 c34 -26 48 -67 38 -112 -4
-20 -261 -283 -893 -915 -961 -960 -909 -914 -972 -870 -45 31 -59 56 -60 103
l0 45 873 873 c479 480 888 882 907 892 40 21 61 18 107 -16z m-1936 -2573
c197 -198 359 -366 359 -373 0 -7 -123 -136 -272 -285 l-273 -273 -137 0 -138
0 0 219 c0 169 -3 221 -13 230 -9 7 -92 12 -233 13 l-219 3 -3 135 -3 134 278
278 c153 153 282 278 286 278 5 0 170 -162 368 -359z"/>
</g>
</svg>
