<?xml version="1.0" standalone="no"?>
<!DOCTYPE svg PUBLIC "-//W3C//DTD SVG 20010904//EN"
 "http://www.w3.org/TR/2001/REC-SVG-20010904/DTD/svg10.dtd">
<svg version="1.0" xmlns="http://www.w3.org/2000/svg"
 width="150.000000pt" height="150.000000pt" viewBox="0 0 150.000000 150.000000"
 preserveAspectRatio="xMidYMid meet">
<metadata>
Created by potrace 1.10, written by Peter Selinger 2001-2011
</metadata>
<g transform="translate(0.000000,150.000000) scale(0.100000,-0.100000)"
fill="#000000" stroke="none">
<path d="M665 1321 c-49 -12 -75 -33 -100 -81 -19 -37 -30 -47 -66 -58 -91
-28 -159 -88 -187 -165 -16 -46 -29 -282 -18 -340 8 -42 47 -83 86 -92 24 -5
29 -13 39 -63 32 -163 167 -272 335 -272 189 0 337 110 362 269 4 26 12 41 21
41 30 0 71 31 87 65 15 31 17 63 14 218 -3 182 -3 183 -35 248 -59 120 -160
202 -281 228 -58 12 -209 13 -257 2z m309 -46 c71 -26 166 -119 202 -197 24
-53 29 -81 34 -169 l5 -107 -25 13 c-14 7 -39 16 -57 19 -23 6 -38 19 -57 49
-37 65 -124 147 -182 174 -38 17 -70 24 -122 24 -110 1 -112 0 -112 -82 0
-128 -37 -160 -184 -163 -67 -1 -100 -7 -125 -20 l-34 -18 6 91 c7 97 24 151
60 189 31 33 83 64 141 82 40 13 52 23 59 46 13 40 45 73 81 84 49 15 253 5
310 -15z m-99 -240 c50 -20 142 -111 177 -172 27 -48 33 -53 75 -59 69 -10 86
-33 81 -106 -5 -68 -26 -96 -79 -107 -31 -6 -34 -10 -41 -54 -16 -113 -93
-202 -206 -237 -74 -23 -179 -26 -235 -6 -102 37 -179 128 -199 236 -12 60
-14 63 -54 80 -52 23 -74 53 -74 103 0 72 56 100 190 95 50 -2 74 2 99 17 58
34 75 67 79 151 l4 74 74 0 c43 0 90 -6 109 -15z"/>
</g>
</svg>
