<?xml version="1.0" standalone="no"?>
<!DOCTYPE svg PUBLIC "-//W3C//DTD SVG 20010904//EN"
 "http://www.w3.org/TR/2001/REC-SVG-20010904/DTD/svg10.dtd">
<svg version="1.0" xmlns="http://www.w3.org/2000/svg"
 width="30px" height="30px" viewBox="0 0 128.000000 128.000000"
 preserveAspectRatio="xMidYMid meet">
<metadata>
Created by potrace 1.10, written by Peter Selinger 2001-2011
</metadata>
<g transform="translate(0.000000,128.000000) scale(0.100000,-0.100000)"
fill="#ffffff" stroke="none">
<path d="M32 1193 c-18 -7 -32 -46 -25 -73 3 -12 100 -98 232 -204 124 -101
231 -189 237 -197 6 -8 30 -142 54 -299 23 -157 46 -295 51 -307 9 -25 46 -38
77 -29 29 10 615 1017 615 1058 0 60 19 58 -632 57 -328 0 -602 -3 -609 -6z
m1183 -32 c-6 -5 -142 -84 -302 -176 -161 -93 -293 -172 -293 -177 0 -28 53
-4 291 132 145 84 280 161 299 173 l35 21 -24 -39 c-13 -22 -143 -245 -289
-495 -145 -250 -272 -463 -280 -473 -13 -14 -18 -15 -28 -5 -8 7 -31 129 -54
278 -22 146 -43 277 -46 292 -5 24 -1 30 30 45 35 16 46 36 27 48 -5 3 -25 -4
-44 -15 l-34 -20 -229 185 c-135 110 -230 193 -232 205 -3 20 6 20 580 23 321
1 587 3 593 5 6 1 6 -1 0 -7z"/>
</g>
</svg>
