<?xml version="1.0" standalone="no"?>
<!DOCTYPE svg PUBLIC "-//W3C//DTD SVG 20010904//EN"
 "http://www.w3.org/TR/2001/REC-SVG-20010904/DTD/svg10.dtd">
<svg version="1.0" xmlns="http://www.w3.org/2000/svg"
 width="25px" height="25px" viewBox="0 0 900.000000 900.000000"
 preserveAspectRatio="xMidYMid meet">
<metadata>
Created by potrace 1.10, written by Peter Selinger 2001-2011
</metadata>
<g transform="translate(0.000000,900.000000) scale(0.100000,-0.100000)"
fill="#5c4364" stroke="none">
<path d="M6024 8495 c-10 -8 -32 -15 -47 -15 -37 0 -156 -118 -177 -175 -12
-33 -15 -159 -20 -720 l-5 -680 -845 -7 c-527 -4 -875 -11 -925 -17 -44 -7
-158 -16 -252 -21 -95 -5 -182 -14 -192 -20 -11 -5 -57 -10 -103 -10 -46 0
-101 -5 -123 -11 -22 -6 -69 -14 -105 -18 -130 -16 -226 -33 -276 -47 -28 -8
-65 -14 -82 -14 -17 0 -51 -6 -74 -14 -24 -8 -61 -16 -83 -20 -22 -3 -71 -15
-110 -26 -38 -12 -90 -25 -115 -30 -25 -4 -58 -12 -75 -18 -16 -6 -57 -18 -90
-27 -33 -10 -73 -23 -90 -30 -49 -20 -98 -36 -135 -44 -31 -7 -103 -37 -183
-77 -16 -8 -35 -14 -42 -14 -8 0 -54 -20 -102 -44 -48 -24 -108 -53 -133 -65
-75 -37 -194 -102 -210 -115 -8 -7 -22 -16 -30 -20 -8 -3 -28 -15 -45 -26 -16
-11 -37 -23 -45 -27 -8 -3 -76 -53 -151 -109 -180 -135 -292 -237 -431 -394
-67 -76 -228 -284 -228 -295 0 -4 -21 -41 -47 -83 -64 -106 -163 -300 -163
-321 0 -9 -5 -22 -12 -29 -12 -12 -36 -71 -45 -112 -3 -14 -12 -34 -19 -45 -8
-11 -14 -30 -14 -42 0 -12 -6 -37 -14 -55 -7 -18 -20 -58 -29 -88 -8 -30 -22
-80 -31 -111 -9 -31 -16 -68 -16 -83 0 -15 -5 -37 -12 -49 -6 -12 -15 -51 -19
-87 -4 -36 -12 -87 -18 -115 -40 -197 -55 -424 -54 -825 0 -344 10 -507 32
-580 6 -19 11 -48 11 -65 0 -16 7 -48 15 -70 8 -22 14 -58 15 -80 0 -22 7 -51
15 -65 8 -14 14 -36 15 -50 0 -14 6 -45 14 -70 8 -25 22 -72 31 -105 9 -33 21
-73 27 -90 5 -16 14 -46 18 -65 4 -19 14 -51 20 -70 26 -73 42 -116 56 -148 8
-18 14 -43 14 -55 0 -13 7 -32 15 -43 8 -10 15 -27 15 -36 0 -17 19 -67 46
-121 8 -16 14 -36 14 -45 0 -9 7 -26 15 -36 8 -11 15 -28 15 -37 0 -10 6 -30
14 -46 8 -15 22 -48 31 -73 25 -66 46 -114 92 -217 9 -21 22 -51 29 -68 18
-45 40 -95 62 -145 11 -25 32 -72 47 -105 14 -33 32 -73 40 -90 7 -16 16 -37
19 -45 3 -8 15 -28 26 -45 11 -16 23 -37 27 -45 26 -58 109 -120 160 -120 30
0 99 39 120 69 21 28 23 41 23 158 0 70 -7 191 -15 268 -21 199 -21 882 0
1019 8 55 15 125 15 156 0 32 7 77 15 100 8 23 15 59 15 80 0 21 6 60 14 86
22 78 37 136 45 179 4 23 11 47 16 55 4 7 12 30 16 49 8 41 20 75 62 181 50
128 87 206 141 300 14 25 29 52 33 60 21 45 193 257 270 331 109 106 268 231
362 284 36 21 100 60 136 83 11 6 27 15 35 18 8 3 22 10 30 15 8 5 22 12 30
15 8 3 43 19 77 35 35 16 69 29 76 29 7 0 22 7 33 15 10 8 29 15 41 15 12 0
34 6 50 14 15 8 53 21 83 29 223 62 245 67 318 77 35 5 68 12 74 16 6 4 38 10
72 14 33 4 90 13 126 20 151 27 251 39 345 44 56 3 112 9 125 14 46 17 529 27
1285 27 l750 0 5 -680 c5 -561 8 -687 20 -720 19 -51 140 -175 172 -175 13 -1
34 -7 48 -15 14 -8 48 -14 75 -14 28 0 61 6 75 14 14 8 33 14 43 15 10 0 44
20 75 44 66 52 2594 2581 2640 2642 18 23 32 50 32 59 0 9 9 19 20 22 18 5 20
14 20 99 0 74 -3 94 -14 94 -8 0 -24 21 -37 48 -17 37 -294 320 -1313 1340
-710 712 -1317 1313 -1348 1338 -31 24 -65 44 -75 44 -10 1 -29 7 -43 15 -33
19 -121 19 -146 0z"/>
</g>
</svg>
