<?xml version="1.0" standalone="no"?>
<!DOCTYPE svg PUBLIC "-//W3C//DTD SVG 20010904//EN"
 "http://www.w3.org/TR/2001/REC-SVG-20010904/DTD/svg10.dtd">
<svg version="1.0" xmlns="http://www.w3.org/2000/svg"
 width="153.000000pt" height="152.000000pt" viewBox="0 0 153.000000 152.000000"
 preserveAspectRatio="xMidYMid meet">

<g transform="translate(0.000000,152.000000) scale(0.100000,-0.100000)"
fill="#000000" stroke="none">
<path d="M672 1460 c-198 -27 -379 -145 -494 -319 -127 -194 -142 -457 -39
-676 62 -133 180 -252 316 -320 272 -136 595 -80 811 140 285 292 252 788 -69
1031 -153 116 -346 168 -525 144z m-7 -410 l100 -100 102 102 103 103 90 -90
90 -90 -102 -102 -103 -103 103 -103 103 -103 -82 -87 c-45 -48 -87 -87 -93
-87 -6 0 -56 45 -111 100 l-100 100 -102 -102 -103 -103 -85 85 c-47 46 -85
89 -85 95 0 5 44 54 97 107 l98 98 -103 103 -102 102 87 88 c49 48 90 87 93
87 3 0 50 -45 105 -100z"/>
</g>
</svg>
