<?xml version="1.0" standalone="no"?>
<!DOCTYPE svg PUBLIC "-//W3C//DTD SVG 20010904//EN"
 "http://www.w3.org/TR/2001/REC-SVG-20010904/DTD/svg10.dtd">
<svg version="1.0" xmlns="http://www.w3.org/2000/svg"
 width="40px" height="40px" viewBox="0 0 600.000000 600.000000"
 preserveAspectRatio="xMidYMid meet">
<metadata>
Created by potrace 1.10, written by Peter Selinger 2001-2011
</metadata>
<g transform="translate(0.000000,600.000000) scale(0.100000,-0.100000)"
fill="#ffffff" stroke="none">
<path d="M2715 5254 c-152 -22 -295 -53 -390 -86 -16 -5 -43 -13 -60 -18 -16
-4 -41 -12 -55 -18 -14 -5 -50 -20 -80 -32 -56 -22 -218 -101 -255 -123 -10
-7 -37 -23 -60 -37 -22 -13 -48 -29 -57 -35 -49 -30 -159 -107 -175 -123 -10
-10 -40 -35 -67 -57 -66 -52 -190 -176 -257 -255 -30 -35 -62 -73 -72 -84 -81
-92 -250 -388 -312 -546 -9 -25 -21 -56 -26 -68 -31 -80 -69 -216 -93 -332
-31 -155 -39 -230 -44 -412 -6 -266 14 -368 74 -368 20 0 56 30 155 130 l129
129 0 108 c0 100 17 249 41 353 6 25 14 63 19 85 15 70 57 199 79 243 4 9 15
33 24 52 16 37 53 114 76 158 8 15 42 70 76 123 204 312 495 558 835 706 19 9
48 22 63 29 16 8 35 14 42 14 8 0 29 6 47 14 18 8 58 21 88 29 30 9 80 23 111
31 31 9 69 16 85 16 16 0 65 7 109 15 158 28 414 16 630 -31 112 -24 172 -43
300 -92 53 -20 232 -108 270 -132 17 -11 37 -23 45 -27 44 -20 257 -192 334
-269 105 -105 230 -266 302 -389 26 -43 103 -203 124 -255 12 -30 27 -66 32
-80 6 -14 14 -41 18 -60 5 -19 13 -48 18 -65 35 -99 72 -358 72 -497 0 -123
-22 -323 -45 -404 -8 -28 -15 -59 -15 -69 0 -23 -31 -121 -76 -237 -18 -46
-107 -230 -127 -263 -52 -85 -122 -189 -136 -203 -9 -9 -34 -39 -56 -67 -51
-65 -176 -190 -240 -240 -27 -22 -56 -46 -64 -53 -50 -48 -265 -174 -391 -229
-19 -9 -48 -22 -63 -29 -16 -8 -35 -14 -42 -14 -8 0 -29 -6 -47 -14 -139 -59
-414 -106 -620 -106 -120 0 -332 25 -430 50 -93 24 -154 43 -186 56 -18 8 -39
14 -47 14 -7 0 -26 6 -42 14 -15 8 -75 38 -133 66 -58 28 -118 60 -135 70 -16
11 -37 23 -45 27 -8 3 -31 18 -50 32 -19 14 -42 31 -51 36 -39 24 -170 135
-234 200 -109 109 -253 300 -318 423 -25 45 -27 55 -15 69 28 34 710 713 716
713 4 0 189 -182 412 -405 223 -223 412 -405 420 -405 8 0 270 255 581 566
334 334 571 564 578 560 7 -5 11 -61 11 -167 0 -221 -10 -209 181 -209 141 0
149 1 163 22 14 20 16 83 16 489 l0 468 -26 20 c-26 21 -37 21 -479 21 -559 0
-505 19 -505 -181 0 -78 5 -149 10 -160 10 -18 23 -19 185 -19 118 0 176 -4
181 -11 4 -7 -173 -191 -440 -457 l-446 -446 -392 391 c-216 215 -404 396
-416 403 -13 6 -34 9 -45 6 -30 -7 -1137 -1117 -1137 -1139 0 -10 4 -25 9 -35
8 -16 26 -58 58 -132 8 -19 19 -42 24 -50 4 -8 18 -35 30 -60 13 -25 34 -63
48 -85 38 -60 49 -78 57 -95 9 -17 116 -160 154 -205 98 -114 222 -234 346
-333 180 -145 486 -310 669 -362 17 -4 44 -13 60 -18 208 -70 468 -106 712
-100 242 7 415 35 638 104 48 15 74 24 168 60 47 19 164 71 187 84 8 5 38 21
65 36 28 14 76 44 109 65 32 22 60 39 63 39 2 0 50 35 106 77 216 164 463 442
581 653 11 19 30 53 42 75 44 78 98 197 136 300 31 83 40 111 47 145 4 19 13
51 19 70 18 57 40 176 58 307 18 138 16 433 -5 563 -24 149 -54 281 -83 365
-5 17 -14 44 -18 60 -27 95 -115 289 -179 396 -12 19 -24 41 -28 49 -11 23
-116 176 -154 224 -126 159 -214 247 -405 406 -29 24 -205 144 -224 153 -8 4
-30 16 -49 28 -107 64 -301 152 -396 179 -16 4 -43 13 -60 18 -270 91 -655
126 -940 86z"/>
</g>
</svg>
